<mxfile host="Electron" agent="Mozilla/5.0 (Windows NT 10.0; Win64; x64) AppleWebKit/537.36 (KHTML, like Gecko) draw.io/27.0.9 Chrome/134.0.6998.205 Electron/35.4.0 Safari/537.36" version="27.0.9">
  <diagram name="Page-1" id="qRoi3cw6eiTXQ5P_kXwH">
    <mxGraphModel dx="1152" dy="762" grid="1" gridSize="10" guides="1" tooltips="1" connect="1" arrows="0" fold="1" page="1" pageScale="1" pageWidth="850" pageHeight="1100" math="0" shadow="0">
      <root>
        <mxCell id="0" />
        <mxCell id="1" parent="0" />
        <mxCell id="7-FTq5gyC_4BrzULD2Po-1" value="User" style="rounded=0;whiteSpace=wrap;html=1;" vertex="1" parent="1">
          <mxGeometry x="30" y="110" width="120" height="60" as="geometry" />
        </mxCell>
        <mxCell id="7-FTq5gyC_4BrzULD2Po-2" value="Admin" style="rounded=0;whiteSpace=wrap;html=1;" vertex="1" parent="1">
          <mxGeometry x="420" y="140" width="120" height="60" as="geometry" />
        </mxCell>
        <mxCell id="7-FTq5gyC_4BrzULD2Po-4" value="GitHub Actions" style="rounded=0;whiteSpace=wrap;html=1;" vertex="1" parent="1">
          <mxGeometry x="590" y="140" width="120" height="60" as="geometry" />
        </mxCell>
        <mxCell id="7-FTq5gyC_4BrzULD2Po-5" value="NGINX Reverse proxy" style="shape=ellipse;html=1;dashed=0;whiteSpace=wrap;perimeter=ellipsePerimeter;" vertex="1" parent="1">
          <mxGeometry x="200" y="305" width="110" height="105" as="geometry" />
        </mxCell>
        <mxCell id="7-FTq5gyC_4BrzULD2Po-7" value="Astro Frontend" style="shape=ellipse;html=1;dashed=0;whiteSpace=wrap;perimeter=ellipsePerimeter;" vertex="1" parent="1">
          <mxGeometry x="350" y="460" width="100" height="100" as="geometry" />
        </mxCell>
        <mxCell id="7-FTq5gyC_4BrzULD2Po-8" value="Node.js backend (API)" style="shape=ellipse;html=1;dashed=0;whiteSpace=wrap;perimeter=ellipsePerimeter;" vertex="1" parent="1">
          <mxGeometry x="10" y="460" width="100" height="100" as="geometry" />
        </mxCell>
        <mxCell id="7-FTq5gyC_4BrzULD2Po-13" value="" style="curved=1;endArrow=classic;html=1;rounded=0;" edge="1" parent="1">
          <mxGeometry width="50" height="50" relative="1" as="geometry">
            <mxPoint x="160" y="150" as="sourcePoint" />
            <mxPoint x="260" y="280" as="targetPoint" />
            <Array as="points">
              <mxPoint x="190" y="150" />
              <mxPoint x="260" y="210" />
            </Array>
          </mxGeometry>
        </mxCell>
        <mxCell id="7-FTq5gyC_4BrzULD2Po-15" value="HTTPS Requests" style="edgeLabel;html=1;align=center;verticalAlign=middle;resizable=0;points=[];" vertex="1" connectable="0" parent="7-FTq5gyC_4BrzULD2Po-13">
          <mxGeometry x="-0.1052" y="1" relative="1" as="geometry">
            <mxPoint as="offset" />
          </mxGeometry>
        </mxCell>
        <mxCell id="7-FTq5gyC_4BrzULD2Po-14" value="" style="curved=1;endArrow=classic;html=1;rounded=0;" edge="1" parent="1">
          <mxGeometry width="50" height="50" relative="1" as="geometry">
            <mxPoint x="180" y="320" as="sourcePoint" />
            <mxPoint x="80" y="190" as="targetPoint" />
            <Array as="points">
              <mxPoint x="150" y="320" />
              <mxPoint x="80" y="260" />
            </Array>
          </mxGeometry>
        </mxCell>
        <mxCell id="7-FTq5gyC_4BrzULD2Po-16" value="HTTPS Responses" style="edgeLabel;html=1;align=center;verticalAlign=middle;resizable=0;points=[];" vertex="1" connectable="0" parent="7-FTq5gyC_4BrzULD2Po-14">
          <mxGeometry x="0.1202" y="-6" relative="1" as="geometry">
            <mxPoint as="offset" />
          </mxGeometry>
        </mxCell>
        <mxCell id="7-FTq5gyC_4BrzULD2Po-17" value="" style="curved=1;endArrow=classic;html=1;rounded=0;" edge="1" parent="1">
          <mxGeometry width="50" height="50" relative="1" as="geometry">
            <mxPoint x="320" y="360" as="sourcePoint" />
            <mxPoint x="390" y="450" as="targetPoint" />
            <Array as="points">
              <mxPoint x="370" y="390" />
            </Array>
          </mxGeometry>
        </mxCell>
        <mxCell id="7-FTq5gyC_4BrzULD2Po-19" value="Text" style="edgeLabel;html=1;align=center;verticalAlign=middle;resizable=0;points=[];" vertex="1" connectable="0" parent="7-FTq5gyC_4BrzULD2Po-17">
          <mxGeometry x="-0.149" y="-5" relative="1" as="geometry">
            <mxPoint y="-1" as="offset" />
          </mxGeometry>
        </mxCell>
        <mxCell id="7-FTq5gyC_4BrzULD2Po-22" value="static page requests" style="edgeLabel;html=1;align=center;verticalAlign=middle;resizable=0;points=[];" vertex="1" connectable="0" parent="7-FTq5gyC_4BrzULD2Po-17">
          <mxGeometry x="-0.2062" y="-5" relative="1" as="geometry">
            <mxPoint as="offset" />
          </mxGeometry>
        </mxCell>
        <mxCell id="7-FTq5gyC_4BrzULD2Po-20" value="" style="curved=1;endArrow=classic;html=1;rounded=0;" edge="1" parent="1">
          <mxGeometry width="50" height="50" relative="1" as="geometry">
            <mxPoint x="70" y="450" as="sourcePoint" />
            <mxPoint x="180" y="360" as="targetPoint" />
            <Array as="points">
              <mxPoint x="100" y="370" />
            </Array>
          </mxGeometry>
        </mxCell>
        <mxCell id="7-FTq5gyC_4BrzULD2Po-21" value="JSON response" style="edgeLabel;html=1;align=center;verticalAlign=middle;resizable=0;points=[];" vertex="1" connectable="0" parent="7-FTq5gyC_4BrzULD2Po-20">
          <mxGeometry x="-0.149" y="-5" relative="1" as="geometry">
            <mxPoint y="-1" as="offset" />
          </mxGeometry>
        </mxCell>
        <mxCell id="7-FTq5gyC_4BrzULD2Po-26" value="" style="curved=1;endArrow=classic;html=1;rounded=0;" edge="1" parent="1">
          <mxGeometry width="50" height="50" relative="1" as="geometry">
            <mxPoint x="340" y="520" as="sourcePoint" />
            <mxPoint x="250" y="420" as="targetPoint" />
            <Array as="points">
              <mxPoint x="270" y="500" />
            </Array>
          </mxGeometry>
        </mxCell>
        <mxCell id="7-FTq5gyC_4BrzULD2Po-27" value="Static page response" style="edgeLabel;html=1;align=center;verticalAlign=middle;resizable=0;points=[];" vertex="1" connectable="0" parent="7-FTq5gyC_4BrzULD2Po-26">
          <mxGeometry x="-0.149" y="-5" relative="1" as="geometry">
            <mxPoint y="-1" as="offset" />
          </mxGeometry>
        </mxCell>
        <mxCell id="7-FTq5gyC_4BrzULD2Po-29" value="" style="curved=1;endArrow=classic;html=1;rounded=0;" edge="1" parent="1">
          <mxGeometry width="50" height="50" relative="1" as="geometry">
            <mxPoint x="210" y="400" as="sourcePoint" />
            <mxPoint x="120" y="490" as="targetPoint" />
            <Array as="points">
              <mxPoint x="200" y="480" />
            </Array>
          </mxGeometry>
        </mxCell>
        <mxCell id="7-FTq5gyC_4BrzULD2Po-30" value="JSON request" style="edgeLabel;html=1;align=center;verticalAlign=middle;resizable=0;points=[];" vertex="1" connectable="0" parent="7-FTq5gyC_4BrzULD2Po-29">
          <mxGeometry x="-0.149" y="-5" relative="1" as="geometry">
            <mxPoint y="-1" as="offset" />
          </mxGeometry>
        </mxCell>
        <mxCell id="7-FTq5gyC_4BrzULD2Po-31" value="" style="shape=requiredInterface;html=1;verticalLabelPosition=bottom;dashed=1;strokeColor=#FF3333;strokeWidth=2;fillColor=none;fontColor=#FF3333;align=center;verticalAlign=top;labelPosition=center;direction=south;rotation=320;" vertex="1" parent="1">
          <mxGeometry x="6.43" y="217.66" width="386.86" height="27.99" as="geometry" />
        </mxCell>
        <mxCell id="7-FTq5gyC_4BrzULD2Po-32" value="User/Webserver Boundary" style="text;html=1;align=center;verticalAlign=middle;resizable=0;points=[];autosize=1;strokeColor=none;fillColor=none;" vertex="1" parent="1">
          <mxGeometry x="200" y="70" width="160" height="30" as="geometry" />
        </mxCell>
        <mxCell id="7-FTq5gyC_4BrzULD2Po-33" value="Cloud watch logs" style="html=1;dashed=0;whiteSpace=wrap;shape=partialRectangle;right=0;left=0;direction=west;" vertex="1" parent="1">
          <mxGeometry x="70" y="700" width="120" height="56.25" as="geometry" />
        </mxCell>
        <mxCell id="7-FTq5gyC_4BrzULD2Po-34" value="" style="curved=1;endArrow=classic;html=1;rounded=0;" edge="1" parent="1">
          <mxGeometry width="50" height="50" relative="1" as="geometry">
            <mxPoint x="120" y="680" as="sourcePoint" />
            <mxPoint x="70" y="570" as="targetPoint" />
            <Array as="points">
              <mxPoint x="60" y="630" />
            </Array>
          </mxGeometry>
        </mxCell>
        <mxCell id="7-FTq5gyC_4BrzULD2Po-36" value="Text" style="edgeLabel;html=1;align=center;verticalAlign=middle;resizable=0;points=[];" vertex="1" connectable="0" parent="7-FTq5gyC_4BrzULD2Po-34">
          <mxGeometry x="-0.478" y="-7" relative="1" as="geometry">
            <mxPoint as="offset" />
          </mxGeometry>
        </mxCell>
        <mxCell id="7-FTq5gyC_4BrzULD2Po-37" value="Log Data" style="edgeLabel;html=1;align=center;verticalAlign=middle;resizable=0;points=[];" vertex="1" connectable="0" parent="7-FTq5gyC_4BrzULD2Po-34">
          <mxGeometry x="-0.5155" y="-7" relative="1" as="geometry">
            <mxPoint as="offset" />
          </mxGeometry>
        </mxCell>
        <mxCell id="7-FTq5gyC_4BrzULD2Po-38" value="" style="shape=requiredInterface;html=1;verticalLabelPosition=bottom;dashed=1;strokeColor=#FF3333;strokeWidth=2;fillColor=none;fontColor=#FF3333;align=center;verticalAlign=top;labelPosition=center;direction=south;rotation=335;" vertex="1" parent="1">
          <mxGeometry x="5" y="630" width="170" height="10" as="geometry" />
        </mxCell>
        <mxCell id="7-FTq5gyC_4BrzULD2Po-39" value="Logging/API Boundary" style="text;html=1;align=center;verticalAlign=middle;resizable=0;points=[];autosize=1;strokeColor=none;fillColor=none;" vertex="1" parent="1">
          <mxGeometry x="129.86" y="610" width="140" height="30" as="geometry" />
        </mxCell>
        <mxCell id="7-FTq5gyC_4BrzULD2Po-41" value="" style="curved=1;endArrow=classic;html=1;rounded=0;" edge="1" parent="1">
          <mxGeometry width="50" height="50" relative="1" as="geometry">
            <mxPoint x="410" y="170" as="sourcePoint" />
            <mxPoint x="310" y="300" as="targetPoint" />
            <Array as="points">
              <mxPoint x="380" y="170" />
              <mxPoint x="310" y="230" />
            </Array>
          </mxGeometry>
        </mxCell>
        <mxCell id="7-FTq5gyC_4BrzULD2Po-42" value="SSH Access" style="edgeLabel;html=1;align=center;verticalAlign=middle;resizable=0;points=[];" vertex="1" connectable="0" parent="7-FTq5gyC_4BrzULD2Po-41">
          <mxGeometry x="-0.1052" y="1" relative="1" as="geometry">
            <mxPoint as="offset" />
          </mxGeometry>
        </mxCell>
        <mxCell id="7-FTq5gyC_4BrzULD2Po-43" value="" style="curved=1;endArrow=classic;html=1;rounded=0;" edge="1" parent="1">
          <mxGeometry width="50" height="50" relative="1" as="geometry">
            <mxPoint x="620" y="217.66" as="sourcePoint" />
            <mxPoint x="350" y="350" as="targetPoint" />
            <Array as="points">
              <mxPoint x="600" y="290" />
              <mxPoint x="540" y="340" />
              <mxPoint x="440" y="360" />
            </Array>
          </mxGeometry>
        </mxCell>
        <mxCell id="7-FTq5gyC_4BrzULD2Po-44" value="CI/CD Deploy (SSH/API)" style="edgeLabel;html=1;align=center;verticalAlign=middle;resizable=0;points=[];" vertex="1" connectable="0" parent="7-FTq5gyC_4BrzULD2Po-43">
          <mxGeometry x="-0.1052" y="1" relative="1" as="geometry">
            <mxPoint as="offset" />
          </mxGeometry>
        </mxCell>
        <mxCell id="7-FTq5gyC_4BrzULD2Po-45" value="" style="shape=requiredInterface;html=1;verticalLabelPosition=bottom;dashed=1;strokeColor=#FF3333;strokeWidth=2;fillColor=none;fontColor=#FF3333;align=center;verticalAlign=top;labelPosition=center;direction=west;rotation=307;" vertex="1" parent="1">
          <mxGeometry x="450" y="80" width="33.27" height="310.84" as="geometry" />
        </mxCell>
        <mxCell id="7-FTq5gyC_4BrzULD2Po-46" value="&lt;div&gt;CI/CD Deployment Boundary&lt;/div&gt;" style="edgeLabel;html=1;align=center;verticalAlign=middle;resizable=0;points=[];" vertex="1" connectable="0" parent="1">
          <mxGeometry x="520" y="245.65" as="geometry" />
        </mxCell>
      </root>
    </mxGraphModel>
  </diagram>
</mxfile>
